<svg width="27" height="30" viewBox="0 0 27 30" fill="none" xmlns="http://www.w3.org/2000/svg">
<path d="M26.404 11.8526H0.609375V29.9999H26.404V11.8526Z" fill="#FFBC1D"/>
<path d="M20.3161 11.8503H6.69727V29.9975H20.3161V11.8503Z" fill="#E1A108"/>
<path d="M19.592 7.75341V29.9975H7.41797V7.75341L10.8724 3.12054C11.4945 2.286 12.4707 1.79541 13.5075 1.79541C14.0284 1.79541 14.5292 1.91679 14.9793 2.14443C15.4345 2.372 15.829 2.70577 16.1426 3.12054L19.592 7.75341Z" fill="#FFBC1D"/>
<path d="M23.1023 8.33012L21.7771 9.85757L13.5077 2.68058L5.23822 9.85757L3.91309 8.33012L13.5077 0L23.1023 8.33012Z" fill="#E4410A"/>
<path d="M5.31807 24.0876H2.22266V28.2552H5.31807V24.0876Z" fill="black"/>
<path d="M5.31807 18.8401H2.22266V23.0076H5.31807V18.8401Z" fill="black"/>
<path d="M5.31807 13.5927H2.22266V17.7602H5.31807V13.5927Z" fill="black"/>
<path d="M24.7897 24.0876H21.6943V28.2552H24.7897V24.0876Z" fill="black"/>
<path d="M24.7897 18.8401H21.6943V23.0076H24.7897V18.8401Z" fill="black"/>
<path d="M24.7897 13.5927H21.6943V17.7602H24.7897V13.5927Z" fill="black"/>
<path d="M18.8228 20.9264V30H8.19141V20.9264C8.19141 20.3677 8.64429 19.9148 9.20296 19.9148H17.8113C18.3699 19.9148 18.8228 20.3677 18.8228 20.9264Z" fill="#EBF0F3"/>
<path d="M17.8105 20.9262H9.20215V29.9999H17.8105V20.9262Z" fill="black"/>
<path d="M17.8096 20.9239H13.5059V29.9975H17.8096V20.9239Z" fill="#303030"/>
<path d="M16.3968 12.0847C16.3968 13.5969 15.1697 14.824 13.6611 14.824C12.149 14.824 10.9219 13.5969 10.9219 12.0847C10.9219 10.5726 12.149 9.34552 13.6611 9.34552C15.1697 9.34552 16.3968 10.5726 16.3968 12.0847Z" fill="#E4410A"/>
<path d="M15.5616 12.0834C15.5616 13.1348 14.7084 13.988 13.6595 13.988C12.6081 13.988 11.7549 13.1348 11.7549 12.0834C11.7549 11.0321 12.6081 10.1789 13.6595 10.1789C14.7084 10.1789 15.5616 11.0321 15.5616 12.0834Z" fill="white"/>
<path fill-rule="evenodd" clip-rule="evenodd" d="M13.3629 12.5675V12.8452H12.8659V12.5675H12.6992V12.2342H12.8659V11.7897H12.6992V11.4564H12.8659V11.2898H13.2533L13.4064 11.4564H13.9798V11.2898H14.4768V11.4564H14.5879V11.7897H14.4768V12.2342H14.5879V12.5675H14.4768V12.8452H14.0817L13.8207 12.5675H13.3629ZM13.3629 12.2342H13.5074L13.3629 12.0806V12.2342ZM13.9798 12.0806L13.7126 11.7897H13.9798V12.0806Z" fill="#3CB54A"/>
</svg>
