<svg width="138" height="155" viewBox="0 0 138 155" fill="none" xmlns="http://www.w3.org/2000/svg">
<path fill-rule="evenodd" clip-rule="evenodd" d="M100.818 32.2323C100.818 19.1155 96.5967 0 68.7202 0C40.8435 0 36.623 19.1155 36.623 32.2323C36.623 35.7357 36.957 38.8297 37.1772 40.869L37.1929 41.0142C35.3203 43.39 34.5087 46.5074 34.5087 49.654C34.5087 51.6745 34.854 53.7583 35.4689 55.6644C36.1092 57.6485 37.0583 59.4577 38.2381 60.8413C39.1243 61.8804 40.1401 62.7054 41.2679 63.247C43.5868 73.0848 49.7129 80.722 52.2148 83.527C52.1882 85.2121 52.1352 87.7487 52.0564 87.7612C45.4215 88.8124 27.8835 95.7473 15.2593 105.341C6.57738 111.938 0 119.928 0 128.573V132.254H3.69653H133.744H137.441V128.573C137.441 119.928 130.863 111.938 122.181 105.34C109.557 95.747 92.0193 88.8124 85.3843 87.7612C85.3056 87.7487 85.2525 85.2123 85.2259 83.527C87.7281 80.7223 93.8543 73.0846 96.1729 63.247C97.3009 62.7054 98.3165 61.8804 99.2025 60.8415C100.382 59.4579 101.331 57.6487 101.972 55.6644C102.587 53.7581 102.932 51.6745 102.932 49.654C102.932 46.5072 102.12 43.39 100.248 41.0142L100.263 40.8694C100.484 38.8303 100.818 35.7359 100.818 32.2322L100.818 32.2323ZM87.0352 38.6949C91.2455 38.6949 89.9716 38.5186 91.3823 38.1821C92.4797 41.8551 93.0829 45.8585 93.0829 50.0484C93.0829 67.8693 82.1756 82.3161 68.7202 82.3161C55.265 82.3161 44.3575 67.8693 44.3575 50.0484C44.3575 46.6938 44.7442 43.4592 45.4614 40.4173C47.0052 40.8237 45.5288 41.0385 50.2351 41.0385C54.9417 41.0385 69.2767 36.2102 73.737 28.6925C78.1743 34.8552 82.8248 38.6949 87.0351 38.6949L87.0352 38.6949Z" fill="#FFBC1D"/>
<path d="M83.4154 119.076C79.6614 115.322 74.4748 113 68.7458 113C63.0168 113 57.8302 115.322 54.0761 119.076C50.322 122.83 48 128.017 48 133.746C48 139.475 50.322 144.661 54.0761 148.415C57.8301 152.17 63.0168 154.492 68.7458 154.492C74.4747 154.492 79.6614 152.17 83.4154 148.415C87.1695 144.661 89.4915 139.475 89.4915 133.746C89.4915 128.017 87.1695 122.83 83.4154 119.076ZM70.8709 118.87V131.621H83.6216V135.871H70.8709V148.622H66.6206V135.871H53.87V131.621H66.6206V118.87H70.8709Z" fill="#3CB54A"/>
</svg>
