<svg width="28" height="28" viewBox="0 0 28 28" fill="none" xmlns="http://www.w3.org/2000/svg">
<path fill-rule="evenodd" clip-rule="evenodd" d="M15.3238 6.70837C14.8467 6.70837 14.3998 6.47504 14.1268 6.08421L13.0803 4.58271C12.4807 3.72171 11.4972 3.20837 10.4483 3.20837C8.98651 3.20837 6.50151 3.20837 4.66634 3.20837C2.89417 3.20837 1.45801 4.64454 1.45801 6.41671V21.5834C1.45801 22.4339 1.79634 23.2505 2.39717 23.8525C2.99917 24.4534 3.81584 24.7917 4.66634 24.7917H23.333C24.1835 24.7917 25.0002 24.4534 25.6022 23.8525C26.203 23.2505 26.5413 22.4339 26.5413 21.5834V9.91671C26.5413 9.06621 26.203 8.24954 25.6022 7.64754C25.0002 7.04671 24.1835 6.70837 23.333 6.70837H15.3238ZM15.3238 8.45837H23.333C23.7203 8.45837 24.0902 8.61237 24.3643 8.88537C24.6373 9.15954 24.7913 9.52937 24.7913 9.91671V21.5834C24.7913 21.9707 24.6373 22.3405 24.3643 22.6147C24.0902 22.8877 23.7203 23.0417 23.333 23.0417H4.66634C4.27901 23.0417 3.90917 22.8877 3.63501 22.6147C3.36201 22.3405 3.20801 21.9707 3.20801 21.5834V6.41671C3.20801 5.61171 3.86134 4.95837 4.66634 4.95837H10.4483C10.9255 4.95837 11.3723 5.19171 11.6453 5.58254L12.6918 7.08404C13.2915 7.94504 14.2738 8.45837 15.3238 8.45837Z" fill="white"/>
<path fill-rule="evenodd" clip-rule="evenodd" d="M13.125 10.2084C10.71 10.2084 8.75 12.1684 8.75 14.5834C8.75 16.9984 10.71 18.9584 13.125 18.9584C15.54 18.9584 17.5 16.9984 17.5 14.5834C17.5 12.1684 15.54 10.2084 13.125 10.2084ZM13.125 11.9584C14.574 11.9584 15.75 13.1344 15.75 14.5834C15.75 16.0324 14.574 17.2084 13.125 17.2084C11.676 17.2084 10.5 16.0324 10.5 14.5834C10.5 13.1344 11.676 11.9584 13.125 11.9584Z" fill="white"/>
<path fill-rule="evenodd" clip-rule="evenodd" d="M18.9926 19.215L16.2217 16.443C15.8799 16.1012 15.3257 16.1012 14.9839 16.443C14.6421 16.7849 14.6421 17.339 14.9839 17.6809L17.7559 20.4517C18.0966 20.7935 18.6519 20.7935 18.9926 20.4517C19.3344 20.111 19.3344 19.5557 18.9926 19.215Z" fill="white"/>
</svg>
