<svg width="20" height="26" viewBox="0 0 20 26" fill="none" xmlns="http://www.w3.org/2000/svg">
<path d="M18.2947 8.48446C17.4726 6.79831 16.0605 5.85222 14.6963 4.93814C13.6782 4.25608 12.7162 3.61202 12.0361 2.69194L11.9141 2.52793C11.5121 1.98788 11.058 1.37582 10.986 0.861778C10.914 0.341731 10.442 -0.0283016 9.92591 0.00170107C9.40187 0.0377043 8.99583 0.471743 8.99583 0.99779V18.8194C8.15775 18.3113 7.12566 17.9993 5.99556 17.9993C3.23932 17.9993 0.995117 19.7935 0.995117 21.9997C0.995117 24.2059 3.23932 26 5.99556 26C8.75181 26 10.996 24.2059 10.996 21.9997V4.56011C11.7801 5.39218 12.6922 6.00423 13.5822 6.60029C14.7803 7.40236 15.9124 8.16043 16.4985 9.36253C16.8665 10.1126 17.0425 10.9307 16.9985 11.6587C16.8885 13.4409 16.2165 15.2331 15.2464 16.3392C14.8804 16.7532 14.9204 17.3852 15.3364 17.7493C15.7484 18.1173 16.3805 18.0733 16.7465 17.6593C17.9986 16.2371 18.8607 13.9849 18.9947 11.7827C19.0607 10.6967 18.8187 9.55655 18.2947 8.48446Z" fill="white"/>
</svg>
