<svg width="142" height="153" viewBox="0 0 142 153" fill="none" xmlns="http://www.w3.org/2000/svg">
<path d="M131.26 42.5374H10.6068C4.77308 42.5374 0 47.3104 0 53.1442V141.976C0 147.81 4.77308 152.583 10.6068 152.583H131.26C137.093 152.583 141.866 147.81 141.866 141.976V53.1442C141.866 47.3104 137.093 42.5374 131.26 42.5374Z" fill="#E89E0A"/>
<path d="M70.9332 0C70.9332 0 0 44.6985 0 47.8408V141.976C0 147.81 4.77308 152.583 10.6068 152.583H131.26C137.093 152.583 141.866 147.81 141.866 141.976V47.8408C141.866 44.7091 70.9332 0 70.9332 0Z" fill="#E38C29"/>
<path opacity="0.1" d="M132.585 40.3089C122.311 33.0592 105.421 22.0519 91.9105 13.3689H49.9512C37.0082 21.686 20.964 32.1364 10.6064 39.3742V126.067C10.6064 134.84 17.7435 141.977 26.5167 141.977H116.675C125.448 141.977 132.585 134.84 132.585 126.067V40.3089Z" fill="black"/>
<path d="M127.282 29.279C127.282 23.4452 122.509 18.6721 116.675 18.6721H26.517C20.6832 18.6721 15.9102 23.4452 15.9102 29.279V126.066C15.9102 131.9 20.6832 136.673 26.517 136.673H116.675C122.509 136.673 127.282 131.9 127.282 126.066V29.279Z" fill="#EDEDED"/>
<path d="M116.675 23.9755C119.6 23.9755 121.979 26.3541 121.979 29.279V126.066C121.979 128.991 119.6 131.37 116.675 131.37H26.517C23.5922 131.37 21.2136 128.991 21.2136 126.066V29.279C21.2136 26.3541 23.5922 23.9755 26.517 23.9755H116.675ZM116.675 18.6721H26.517C20.6832 18.6721 15.9102 23.4452 15.9102 29.279V126.066C15.9102 131.9 20.6832 136.673 26.517 136.673H116.675C122.509 136.673 127.282 131.9 127.282 126.066V29.279C127.282 23.4452 122.509 18.6721 116.675 18.6721Z" fill="black" fill-opacity="0.1"/>
<path opacity="0.1" d="M137.484 43.8633L71.5957 100.715V147.28H131.259C137.093 147.28 141.866 142.507 141.866 136.673V47.8408C141.866 47.2721 141.322 46.6635 137.484 43.8633Z" fill="black"/>
<path opacity="0.1" d="M4.38195 43.8633L70.2703 100.715V147.28H10.6068C4.77308 147.28 0 142.507 0 136.673V47.8408C0 47.2721 0.543601 46.6635 4.38195 43.8633Z" fill="black"/>
<path d="M21.2136 73.2784V58.2791L15.9102 63.5825V78.5819L21.2136 73.2784Z" fill="#2F71B1"/>
<path d="M21.2136 50.7788V35.7781L15.9102 41.0815V56.0822L21.2136 50.7788Z" fill="#BA3E24"/>
<path d="M75.8214 18.6721H60.822L55.5186 23.9755H70.5179L75.8214 18.6721Z" fill="#2F71B1"/>
<path d="M21.3395 28.152C21.7797 26.1327 23.3694 24.543 25.3887 24.1028L30.8194 18.6721H26.517C20.6832 18.6721 15.9102 23.4452 15.9102 29.279V33.5814L21.3395 28.152Z" fill="#2F71B1"/>
<path d="M33.0176 23.9755H48.0183L53.3217 18.6721H38.321L33.0176 23.9755Z" fill="#BA3E24"/>
<path d="M127.282 34.7123V29.2789C127.282 26.6259 126.287 24.1982 124.662 22.3328L120.894 26.1008C121.564 26.9892 121.978 28.0817 121.978 29.2789V40.0157L127.282 34.7123Z" fill="#BA3E24"/>
<path d="M127.282 57.2134V42.2126L121.979 47.5161V62.5168L127.282 57.2134Z" fill="#2F71B1"/>
<path d="M120.201 19.2913C119.095 18.8975 117.911 18.6721 116.674 18.6721H105.821L100.518 23.9755H115.518L120.201 19.2913Z" fill="#2F71B1"/>
<path d="M83.321 18.6721L78.0176 23.9755H93.0183L98.3217 18.6721H83.321Z" fill="#BA3E24"/>
<path d="M103.415 43.863H38.4486C36.9848 43.863 35.7969 42.675 35.7969 41.2113C35.7969 39.7475 36.9848 38.5596 38.4486 38.5596H103.415C104.879 38.5596 106.067 39.7475 106.067 41.2113C106.067 42.675 104.879 43.863 103.415 43.863Z" fill="#D0D0D0"/>
<path d="M103.415 57.1218H38.4486C36.9848 57.1218 35.7969 55.9338 35.7969 54.4701C35.7969 53.0063 36.9848 51.8184 38.4486 51.8184H103.415C104.879 51.8184 106.067 53.0063 106.067 54.4701C106.067 55.9338 104.879 57.1218 103.415 57.1218Z" fill="#D0D0D0"/>
<path d="M103.415 70.3801H38.4486C36.9848 70.3801 35.7969 69.1921 35.7969 67.7284C35.7969 66.2646 36.9848 65.0767 38.4486 65.0767H103.415C104.879 65.0767 106.067 66.2646 106.067 67.7284C106.067 69.1921 104.879 70.3801 103.415 70.3801Z" fill="#D0D0D0"/>
<path d="M103.415 83.6389H38.4486C36.9848 83.6389 35.7969 82.4509 35.7969 80.9872C35.7969 79.5234 36.9848 78.3354 38.4486 78.3354H103.415C104.879 78.3354 106.067 79.5234 106.067 80.9872C106.067 82.4509 104.879 83.6389 103.415 83.6389Z" fill="#D0D0D0"/>
<path d="M103.415 96.8977H38.4486C36.9848 96.8977 35.7969 95.7097 35.7969 94.2459C35.7969 92.7822 36.9848 91.5942 38.4486 91.5942H103.415C104.879 91.5942 106.067 92.7822 106.067 94.2459C106.067 95.7097 104.879 96.8977 103.415 96.8977Z" fill="#D0D0D0"/>
<path d="M70.9332 101.317L0 47.8408V136.673C0 142.507 4.77308 147.28 10.6068 147.28H131.26C137.093 147.28 141.866 142.507 141.866 136.673V47.8408L70.9332 101.317Z" fill="#F2BA34"/>
<path opacity="0.2" d="M70.9331 88.9424L3.92969 144.895C5.75672 146.382 8.08094 147.28 10.6067 147.28H131.259C133.785 147.28 136.109 146.382 137.936 144.895L70.9331 88.9424Z" fill="black"/>
<path d="M70.9331 92.9199L3.92969 144.895C5.75672 146.382 8.08094 147.28 10.6067 147.28H131.259C133.785 147.28 136.109 146.382 137.936 144.895L70.9331 92.9199Z" fill="#F2A825"/>
</svg>
