<svg width="31" height="31" viewBox="0 0 31 31" fill="none" xmlns="http://www.w3.org/2000/svg">
<path d="M24.0501 3.04039C24.3457 2.86623 24.7113 2.86135 25.0114 3.02755L27.5947 4.45832C28.0627 4.71754 28.232 5.3071 27.9728 5.77513C27.7136 6.24317 27.124 6.41244 26.6559 6.15323L25.5107 5.51894V10.9792C25.5107 12.5842 24.2095 13.8854 22.6045 13.8854C20.9995 13.8854 19.6982 12.5842 19.6982 10.9792C19.6982 9.37409 20.9995 8.07292 22.6045 8.07292C22.9442 8.07292 23.2702 8.1312 23.5732 8.23829V3.875C23.5732 3.53198 23.7546 3.21453 24.0501 3.04039Z" fill="white"/>
<path fill-rule="evenodd" clip-rule="evenodd" d="M16.4688 15.0758V4.88714C18.0469 5.02919 19.5244 5.51502 20.8275 6.26877C21.2905 6.53667 21.8832 6.37842 22.1511 5.91529C22.4189 5.45218 22.2607 4.85956 21.7975 4.59167C19.9442 3.51955 17.7923 2.90625 15.5 2.90625C8.54466 2.90625 2.90625 8.54466 2.90625 15.5C2.90625 22.4554 8.54466 28.0938 15.5 28.0938C22.4554 28.0938 28.0938 22.4554 28.0938 15.5C28.0938 14.5395 27.986 13.6029 27.7817 12.7023C27.6632 12.1805 27.1444 11.8535 26.6225 11.9719C26.1008 12.0903 25.7738 12.6093 25.8922 13.1311C26.0649 13.892 26.1562 14.6847 26.1562 15.5C26.1562 17.9407 25.3357 20.1899 23.9552 21.9865L16.4688 15.0758ZM16.4688 26.1129C18.8337 25.8997 20.9758 24.9139 22.6409 23.4099L16.4688 17.7126V26.1129ZM14.5312 17.7126V26.1129C12.1663 25.8997 10.0242 24.9139 8.35919 23.4099L14.5312 17.7126ZM14.5312 15.0758L7.0447 21.9865C5.66435 20.1899 4.84375 17.9407 4.84375 15.5C4.84375 9.94127 9.09996 5.37663 14.5312 4.88719V15.0758Z" fill="white"/>
</svg>
