<svg width="22" height="21" viewBox="0 0 22 21" fill="none" xmlns="http://www.w3.org/2000/svg">
<path d="M15.5865 0.976074C14.5607 0.976074 13.5803 1.20054 12.6726 1.64327C12.0547 1.94459 11.487 2.34493 11 2.81992C10.5129 2.34493 9.94532 1.94459 9.32741 1.64327C8.41965 1.20054 7.43927 0.976074 6.41348 0.976074C2.8771 0.976074 0 3.7224 0 7.09807C0 9.489 1.32286 12.0284 3.93179 14.6457C6.1101 16.831 8.77705 18.6527 10.6307 19.7961L11 20.0239L11.3693 19.7961C13.223 18.6527 15.8899 16.831 18.0683 14.6457C20.6772 12.0284 22 9.489 22 7.09807C22 3.7224 19.1229 0.976074 15.5865 0.976074ZM17.0824 13.7503C15.1356 15.7033 12.7642 17.3636 11 18.4749C9.23578 17.3636 6.86441 15.7033 4.91766 13.7503C2.55749 11.3826 1.36082 9.14447 1.36082 7.09807C1.36082 4.43865 3.62746 2.27504 6.41352 2.27504C8.01753 2.27504 9.49098 2.97835 10.456 4.20458L11 4.89584L11.544 4.20458C12.509 2.97835 13.9825 2.27504 15.5865 2.27504C18.3725 2.27504 20.6392 4.43865 20.6392 7.09807C20.6392 9.14447 19.4425 11.3826 17.0824 13.7503Z" fill="white"/>
</svg>
