<svg width="22" height="22" viewBox="0 0 22 22" fill="none" xmlns="http://www.w3.org/2000/svg">
<path d="M20.927 8.0192L17.5275 5.18848V2.9067C17.5275 2.73129 17.4578 2.56307 17.3338 2.43903C17.2098 2.315 17.0415 2.24532 16.8661 2.24532C16.6907 2.24532 16.5225 2.315 16.3985 2.43903C16.2744 2.56307 16.2047 2.73129 16.2047 2.9067V4.08397L11.8528 0.45958C11.4963 0.162618 11.047 0 10.583 0C10.119 0 9.66965 0.162618 9.31312 0.45958L0.238927 8.0192C0.103861 8.13147 0.018923 8.29279 0.00279865 8.46767C-0.0133257 8.64256 0.0406841 8.81669 0.152947 8.95176C0.265209 9.08682 0.426528 9.17176 0.601416 9.18788C0.776303 9.20401 0.950433 9.15 1.0855 9.03774L10.1597 1.4748C10.2785 1.37582 10.4283 1.32161 10.583 1.32161C10.7376 1.32161 10.8874 1.37582 11.0063 1.4748L18.5196 7.73481V19.1106C18.5196 19.286 18.4499 19.4543 18.3259 19.5783C18.2018 19.7023 18.0336 19.772 17.8582 19.772H14.5513V12.4968C14.5513 11.9705 14.3422 11.4659 13.9701 11.0938C13.598 10.7217 13.0934 10.5126 12.5671 10.5126H8.59883C8.0726 10.5126 7.56792 10.7217 7.19582 11.0938C6.82372 11.4659 6.61467 11.9705 6.61467 12.4968V19.772H3.30775C3.13234 19.772 2.96411 19.7023 2.84008 19.5783C2.71605 19.4543 2.64637 19.286 2.64637 19.1106V11.174C2.64637 10.9986 2.57668 10.8304 2.45265 10.7063C2.32862 10.5823 2.16039 10.5126 1.98498 10.5126C1.80957 10.5126 1.64135 10.5823 1.51731 10.7063C1.39328 10.8304 1.3236 10.9986 1.3236 11.174V19.1106C1.3236 19.6369 1.53264 20.1415 1.90474 20.5136C2.27684 20.8857 2.78152 21.0948 3.30775 21.0948H17.8582C18.3844 21.0948 18.8891 20.8857 19.2612 20.5136C19.6333 20.1415 19.8424 19.6369 19.8424 19.1106V8.83932L20.0805 9.03774C20.1995 9.13634 20.3492 9.19016 20.5037 9.18985C20.6399 9.19012 20.7729 9.14834 20.8844 9.07022C20.996 8.99209 21.0807 8.88144 21.127 8.75337C21.1733 8.62529 21.179 8.48605 21.1432 8.35465C21.1074 8.22325 21.0319 8.1061 20.927 8.0192ZM7.93744 19.772V12.4968C7.93744 12.3214 8.00712 12.1531 8.13116 12.0291C8.25519 11.9051 8.42342 11.8354 8.59883 11.8354H12.5671C12.7425 11.8354 12.9108 11.9051 13.0348 12.0291C13.1588 12.1531 13.2285 12.3214 13.2285 12.4968V19.772H7.93744Z" fill="#EFEFEF"/>
<path d="M9.92213 16.4651C10.2874 16.4651 10.5835 16.169 10.5835 15.8037C10.5835 15.4384 10.2874 15.1423 9.92213 15.1423C9.55685 15.1423 9.26074 15.4384 9.26074 15.8037C9.26074 16.169 9.55685 16.4651 9.92213 16.4651Z" fill="#EFEFEF"/>
</svg>
