<svg width="35" height="35" viewBox="0 0 35 35" fill="none" xmlns="http://www.w3.org/2000/svg">
<path d="M31.0688 14.0684V30.8882C31.0688 31.2334 30.7886 31.5137 30.4468 31.5137H4.55225C4.20703 31.5137 3.92676 31.2334 3.92676 30.8882V14.0684C3.92676 13.7231 4.20703 13.4463 4.55225 13.4463H30.4434C30.7886 13.4429 31.0688 13.7231 31.0688 14.0684Z" fill="#E1A108"/>
<path d="M29.2236 13.4429V29.3501C29.2236 29.6953 28.9434 29.9722 28.6016 29.9722H3.93066V14.0684C3.93066 13.7231 4.21094 13.4463 4.55615 13.4463H29.2236V13.4429Z" fill="#FFBC1D"/>
<path d="M14.772 19.6226C14.772 21.3794 13.3467 22.8081 11.5864 22.8081C10.3491 22.8081 9.27588 22.1006 8.74951 21.0684C8.52734 20.6343 8.4043 20.1421 8.4043 19.6226C8.4043 17.8657 9.82959 16.437 11.5898 16.437C12.3281 16.437 13.0049 16.6865 13.5449 17.1069C14.29 17.6914 14.772 18.6006 14.772 19.6226Z" fill="#F2C09E"/>
<path d="M16.208 26.5952V28.0889C16.208 28.3145 16.0303 28.5024 15.8081 28.5161C15.7979 28.5161 15.791 28.5161 15.7808 28.5161H7.3999C7.38965 28.5161 7.38281 28.5161 7.37256 28.5161C7.15039 28.5024 6.97266 28.3179 6.97266 28.0889V26.5952C6.97266 26.1577 7.04785 25.7373 7.18115 25.3477C7.69727 23.8677 9.10547 22.8047 10.7598 22.8047H12.4175C12.8755 22.8047 13.313 22.8867 13.7163 23.0337C14.7793 23.4233 15.6201 24.2744 15.9961 25.3477C16.1328 25.7373 16.208 26.1577 16.208 26.5952Z" fill="#E4410A"/>
<path d="M13.8901 18.5562C13.8901 20.313 12.4648 21.7417 10.7046 21.7417C9.96631 21.7417 9.28955 21.4922 8.74951 21.0718C8.52734 20.6377 8.4043 20.1455 8.4043 19.626C8.4043 17.8691 9.82959 16.4404 11.5898 16.4404C12.3281 16.4404 13.0049 16.6899 13.5449 17.1104C13.7671 17.5444 13.8901 18.0332 13.8901 18.5562Z" fill="#FFE1CC"/>
<path d="M14.4272 25.2417V26.7354C14.4272 26.9609 14.2495 27.1489 14.0273 27.1626C14.0171 27.1626 14.0103 27.1626 14 27.1626H6.97266V26.5918C6.97266 26.1543 7.04785 25.7339 7.18115 25.3442C7.69727 23.8643 9.10547 22.8013 10.7598 22.8013H12.4175C12.8755 22.8013 13.313 22.8833 13.7163 23.0303C13.9248 23.3208 14.0957 23.6455 14.2153 23.9907C14.3521 24.3872 14.4272 24.8076 14.4272 25.2417Z" fill="#F86334"/>
<path d="M28.0068 16.7788H19.1885V19.9233H28.0068V16.7788Z" fill="#D0D5D8"/>
<path d="M26.8105 16.7788H19.1885V18.9321H26.8105V16.7788Z" fill="#FEFFFF"/>
<path d="M17.4995 7.42041L15.1548 10.8623L14.2456 9.53271L10.127 3.48975H14.8198L17.4995 7.42041Z" fill="black"/>
<path d="M24.8716 3.48975L19.8437 10.8623H15.1543L16.1318 9.42676L17.499 7.42041L20.1787 3.48975H24.8716Z" fill="black"/>
<path d="M15.7563 7.31787L14.2456 9.53271L10.127 3.48975H13.145L15.7563 7.31787Z" fill="#2B2B2B"/>
<path d="M23.0747 3.48975L19.0244 9.42676H16.1328L17.5 7.42041L20.1797 3.48975H23.0747Z" fill="#2B2B2B"/>
<path d="M21.3691 11.8535V13.4429H13.6309V11.8535C13.6309 11.3066 14.0752 10.8623 14.6221 10.8623H20.3779C20.9248 10.8623 21.3691 11.3066 21.3691 11.8535Z" fill="#FFA506"/>
<path d="M20.3369 10.9546V12.5439H13.6309V11.8501C13.6309 11.3032 14.0752 10.8589 14.6221 10.8589H20.3335C20.3369 10.8931 20.3369 10.9238 20.3369 10.9546Z" fill="#F7EB16"/>
<path d="M28.0068 22.7261H19.1885C19.0005 22.7261 18.8467 22.5723 18.8467 22.3843C18.8467 22.1963 19.0005 22.0425 19.1885 22.0425H28.0068C28.1948 22.0425 28.3486 22.1963 28.3486 22.3843C28.3486 22.5723 28.1982 22.7261 28.0068 22.7261Z" fill="#E1A108"/>
<path d="M24.042 25.187H19.1885C19.0005 25.187 18.8467 25.0332 18.8467 24.8452C18.8467 24.6572 19.0005 24.5034 19.1885 24.5034H24.042C24.23 24.5034 24.3838 24.6572 24.3838 24.8452C24.3838 25.0332 24.2334 25.187 24.042 25.187Z" fill="#E1A108"/>
<path d="M28.0059 28.8579H24.041C23.853 28.8579 23.6992 28.7041 23.6992 28.5161C23.6992 28.3281 23.853 28.1743 24.041 28.1743H28.0059C28.1938 28.1743 28.3477 28.3281 28.3477 28.5161C28.3477 28.7041 28.1973 28.8579 28.0059 28.8579Z" fill="#E8E9EA"/>
</svg>
