<svg width="29" height="29" viewBox="0 0 29 29" fill="none" xmlns="http://www.w3.org/2000/svg">
<path d="M12.8393 18.692H5.2304L3.98442 19.6169L3.77734 21.3345L4.45697 22.1469L11.7065 22.4106H14.2738L12.8393 18.692Z" fill="white"/>
<path d="M6.54297 20.6734L6.37305 24.6664C6.37305 24.6664 8.18543 24.0433 8.39784 24.0433C8.61024 24.0433 10.1112 24.4398 10.1112 24.4398C10.1112 24.4398 10.2528 20.8717 10.2528 20.6734C10.2528 20.4752 6.54297 20.6734 6.54297 20.6734Z" fill="#E4410A"/>
<path d="M24.7234 13.6788C24.6385 13.6504 23.7606 13.6221 23.7606 13.6221L22.8261 14.5C22.8261 14.5 23.1659 8.26993 23.1659 8.15664C23.1659 8.04336 22.1748 6.68404 22.0898 6.59908C22.0048 6.51412 20.4473 6.59908 20.4473 6.59908L20.1075 6.17428C20.1075 6.17428 19.334 5.36364 19.1447 5.44418C18.9553 5.52472 18.1818 5.60793 18.1818 5.60793L17.6721 7.08047L16.511 6.74063L15.7181 7.25039L15.2655 9.26102L14.7841 9.00614L13.2266 9.60087L13.0283 12.2911L13.1743 19.5593L14.1328 21.2115L15.4916 22.8823V24.2416L20.4447 24.4115C20.4447 24.4115 20.504 23.9867 20.4473 23.7885C20.3907 23.5903 21.1836 22.4106 21.1836 22.4106L24.4685 17.2469L25.2614 14.8398C25.2614 14.8398 24.8083 13.7071 24.7234 13.6788Z" fill="#723D3D"/>
<path d="M20.2396 0.832726L5.74094 0.644226L3.77726 1.43719L3.28613 19.5594L4.38168 18.6921L7.13741 18.3133H13.217V10.0071L14.0471 9.21418H15.0666L15.859 7.13807L16.9546 6.94957L18.3139 6.04338C18.3139 6.04338 19.2201 5.32569 19.3333 5.36369C19.4466 5.40175 20.7679 5.66547 20.7679 5.66547L20.2396 0.832726Z" fill="#FFBC1D"/>
<path d="M4.26821 0.907089C4.26821 0.907089 3.58853 2.03984 3.28589 2.34163C2.98321 2.64341 3.28589 19.5594 3.28589 19.5594L4.38144 18.6921L6.37258 18.1629V0.907089H4.26821Z" fill="#E1A108"/>
<path d="M20.7677 24.6664H15.1416V28.4327H20.7677V24.6664Z" fill="#0C61CC"/>
<path d="M25.2637 13.3726C24.9822 13.2045 24.6619 13.1159 24.3353 13.1159C24.0009 13.1159 23.676 13.2097 23.3972 13.3779V7.85576C23.3972 6.85577 22.584 6.04338 21.5849 6.04338C21.3715 6.04338 21.1671 6.08053 20.9769 6.14777V0.605312C20.9769 0.271642 20.707 0.000900269 20.3734 0.000900269H5.27031C3.93847 0.000900269 2.85352 1.08585 2.85352 2.4177V20.5416C2.85352 21.8743 3.93847 22.9584 5.27031 22.9584H5.87473V24.7708C5.87473 24.9655 5.96767 25.1478 6.12604 25.261C6.28356 25.3743 6.48537 25.4053 6.66939 25.3442L8.29068 24.8035L9.9119 25.3442C9.97472 25.3646 10.0393 25.3743 10.1031 25.3743C10.2287 25.3743 10.3526 25.3353 10.4571 25.261C10.6146 25.1478 10.7075 24.9655 10.7075 24.7708V22.9584H14.5429C14.6748 23.0646 14.811 23.1655 14.9526 23.2593V24.1663H14.9331C14.5995 24.1663 14.3296 24.4371 14.3296 24.7708V28.3956C14.3296 28.7293 14.5995 28.9991 14.9331 28.9991H20.9876C21.3203 28.9991 21.5911 28.7292 21.5911 28.3956V24.7708C21.5911 24.4389 21.3238 24.1708 20.9938 24.1672V23.2416C21.846 22.6672 22.5291 21.8504 22.9415 20.9106L25.892 15.854C26.4017 14.9964 26.1203 13.884 25.2637 13.3726ZM19.769 4.93719C19.5805 4.8708 19.3786 4.83455 19.1681 4.83455C18.3345 4.83455 17.6291 5.40181 17.4194 6.17082C17.2124 6.08852 16.9876 6.04338 16.7522 6.04338C15.7522 6.04338 14.9403 6.85577 14.9403 7.85576V8.56372C14.7509 8.49643 14.5474 8.46018 14.3359 8.46018C13.3368 8.46018 12.5235 9.27348 12.5235 10.2726V18.1248H7.0827V1.20972H19.769V4.93719ZM4.0624 2.4177C4.0624 1.75132 4.60399 1.20972 5.27037 1.20972H5.87478V18.1248H5.27031C4.8305 18.1248 4.4181 18.2434 4.06234 18.4504V15.7089C4.39595 15.7089 4.6659 15.4381 4.6659 15.1044C4.6659 14.7707 4.39601 14.5 4.0624 14.5V12.084C4.39601 12.084 4.66596 11.8132 4.66596 11.4796C4.66596 11.146 4.39601 10.8752 4.0624 10.8752V8.45927C4.39601 8.45927 4.66596 8.18847 4.66596 7.85486C4.66596 7.52119 4.39601 7.25045 4.0624 7.25045V4.8345C4.39601 4.8345 4.66596 4.5637 4.66596 4.23009C4.66596 3.89642 4.39601 3.62567 4.0624 3.62567V2.4177ZM9.49956 23.9318L8.48184 23.5938C8.35796 23.5522 8.22344 23.5522 8.09951 23.5938L7.0827 23.9318V21.146H9.4995V23.9318H9.49956ZM10.7075 21.146C11.0411 21.146 11.3119 20.8752 11.3119 20.5416C11.3119 20.2079 11.0411 19.9372 10.7075 19.9372H5.87473C5.54111 19.9372 5.27031 20.2079 5.27031 20.5416C5.27031 20.8752 5.54111 21.146 5.87473 21.146V21.7495H5.27031C4.60394 21.7495 4.06234 21.2079 4.06234 20.5416C4.06234 19.8752 4.60394 19.3336 5.27031 19.3336H12.5579C12.6553 20.2044 12.9632 21.0328 13.4429 21.7495H10.7075V21.146ZM20.3832 27.7911H15.5371V25.3743H20.3832V27.7911ZM24.853 15.238C24.8521 15.2398 24.8513 15.2415 24.8495 15.2433L21.8885 20.3177C21.8734 20.3425 21.8593 20.369 21.8478 20.3973C21.492 21.2257 20.8655 21.9319 20.085 22.3867C19.8991 22.4946 19.7858 22.6929 19.7858 22.9089V24.1663H16.1611V22.923C16.1611 22.7071 16.0451 22.5071 15.8575 22.4C14.5465 21.6469 13.7315 20.2398 13.7315 18.7301V10.2726C13.7315 9.93895 14.0023 9.66815 14.3359 9.66815C14.6695 9.66815 14.9403 9.93895 14.9403 10.2726C14.9403 10.3159 14.9447 10.3584 14.9535 10.3991C14.927 10.4681 14.9659 13.9469 14.9659 13.9469C14.9704 14.277 15.2403 14.5416 15.569 14.5416C15.5725 14.5416 15.5752 14.5416 15.5787 14.5416C15.9124 14.5372 16.1787 14.262 16.1734 13.9283L16.1477 7.85576C16.1477 7.5221 16.4185 7.25135 16.7522 7.25135C17.0849 7.25135 17.3557 7.52215 17.3557 7.85576V13.9381C17.3557 14.2717 17.6265 14.5425 17.9601 14.5425C18.2938 14.5425 18.5646 14.2717 18.5646 13.9381V7.85576V6.64688C18.5646 6.31412 18.8353 6.04338 19.1681 6.04338C19.5008 6.04338 19.7725 6.31418 19.7725 6.64688V7.85576V13.9381C19.7725 14.2717 20.0425 14.5425 20.377 14.5425C20.7097 14.5425 20.9805 14.2717 20.9805 13.9381V7.85576C20.9805 7.5221 21.2512 7.25135 21.5849 7.25135C21.9186 7.25135 22.1894 7.52215 22.1894 7.85576V15.1531C22.1894 15.4248 22.3699 15.6628 22.6319 15.7354C22.8947 15.8079 23.1725 15.6964 23.3115 15.4628L23.8159 14.6186C23.9257 14.4345 24.1204 14.3239 24.3354 14.3239C24.4433 14.3239 24.5504 14.3531 24.6442 14.4098C24.93 14.5796 25.0238 14.9513 24.853 15.238Z" fill="black"/>
</svg>
