<svg width="26" height="26" viewBox="0 0 26 26" fill="none" xmlns="http://www.w3.org/2000/svg">
<path d="M1.69618 11.1583C1.8802 11.247 2.08557 11.2819 2.28856 11.2589C2.49156 11.2359 2.68391 11.156 2.84343 11.0283L7.17676 7.56165C7.30368 7.46016 7.40614 7.33142 7.47655 7.18496C7.54696 7.0385 7.58352 6.87807 7.58352 6.71557C7.58352 6.55306 7.54696 6.39264 7.47655 6.24618C7.40614 6.09972 7.30368 5.97098 7.17676 5.86949L2.84343 2.40282C2.684 2.27518 2.49174 2.1952 2.28883 2.17211C2.08591 2.14902 1.8806 2.18375 1.69657 2.27231C1.51255 2.36087 1.3573 2.49965 1.24874 2.67263C1.14018 2.84561 1.08273 3.04576 1.08301 3.24999V10.1833C1.08319 10.387 1.14082 10.5866 1.24928 10.7591C1.35774 10.9315 1.51263 11.0699 1.69618 11.1583Z" fill="white"/>
<path d="M10.8333 4.33329H23.8333C24.1207 4.33329 24.3962 4.21916 24.5994 4.01599C24.8025 3.81283 24.9167 3.53728 24.9167 3.24996C24.9167 2.96264 24.8025 2.68709 24.5994 2.48393C24.3962 2.28076 24.1207 2.16663 23.8333 2.16663H10.8333C10.546 2.16663 10.2705 2.28076 10.0673 2.48393C9.86414 2.68709 9.75 2.96264 9.75 3.24996C9.75 3.53728 9.86414 3.81283 10.0673 4.01599C10.2705 4.21916 10.546 4.33329 10.8333 4.33329Z" fill="white"/>
<path d="M23.8333 8.66663H10.8333C10.546 8.66663 10.2705 8.78076 10.0673 8.98393C9.86414 9.18709 9.75 9.46264 9.75 9.74996C9.75 10.0373 9.86414 10.3128 10.0673 10.516C10.2705 10.7192 10.546 10.8333 10.8333 10.8333H23.8333C24.1207 10.8333 24.3962 10.7192 24.5994 10.516C24.8025 10.3128 24.9167 10.0373 24.9167 9.74996C24.9167 9.46264 24.8025 9.18709 24.5994 8.98393C24.3962 8.78076 24.1207 8.66663 23.8333 8.66663Z" fill="white"/>
<path d="M23.833 15.1666H2.16634C1.87902 15.1666 1.60347 15.2808 1.40031 15.4839C1.19714 15.6871 1.08301 15.9626 1.08301 16.25C1.08301 16.5373 1.19714 16.8128 1.40031 17.016C1.60347 17.2192 1.87902 17.3333 2.16634 17.3333H23.833C24.1203 17.3333 24.3959 17.2192 24.599 17.016C24.8022 16.8128 24.9163 16.5373 24.9163 16.25C24.9163 15.9626 24.8022 15.6871 24.599 15.4839C24.3959 15.2808 24.1203 15.1666 23.833 15.1666Z" fill="white"/>
<path d="M23.833 21.6666H2.16634C1.87902 21.6666 1.60347 21.7808 1.40031 21.9839C1.19714 22.1871 1.08301 22.4626 1.08301 22.75C1.08301 23.0373 1.19714 23.3128 1.40031 23.516C1.60347 23.7192 1.87902 23.8333 2.16634 23.8333H23.833C24.1203 23.8333 24.3959 23.7192 24.599 23.516C24.8022 23.3128 24.9163 23.0373 24.9163 22.75C24.9163 22.4626 24.8022 22.1871 24.599 21.9839C24.3959 21.7808 24.1203 21.6666 23.833 21.6666Z" fill="white"/>
</svg>
