<svg width="22" height="22" viewBox="0 0 22 22" fill="none" xmlns="http://www.w3.org/2000/svg">
<path fill-rule="evenodd" clip-rule="evenodd" d="M21.4387 0.109741C21.377 0.0614042 21.3051 0.0277672 21.2285 0.0113869C21.1518 -0.00499334 21.0725 -0.00368581 20.9964 0.0152101L6.85624 3.52614C6.7445 3.55379 6.64524 3.61807 6.57429 3.70871C6.50335 3.79936 6.4648 3.91115 6.4648 4.02626V15.9278C5.88404 15.3411 5.11767 14.9742 4.2965 14.8897C3.47534 14.8052 2.6503 15.0083 1.96223 15.4644C1.27417 15.9205 0.765751 16.6013 0.523768 17.3906C0.281786 18.1798 0.321246 19.0286 0.635412 19.7919C0.949578 20.5553 1.51897 21.186 2.24638 21.5763C2.97379 21.9666 3.81412 22.0923 4.6239 21.932C5.43369 21.7716 6.16272 21.3352 6.68653 20.6972C7.21035 20.0592 7.49647 19.2591 7.49605 18.4336V9.36134L20.605 6.10693V15.9282C20.0243 15.3416 19.2579 14.9747 18.4367 14.8902C17.6156 14.8057 16.7906 15.0089 16.1026 15.465C15.4146 15.9211 14.9062 16.6019 14.6642 17.3911C14.4223 18.1804 14.4618 19.0291 14.776 19.7924C15.0902 20.5558 15.6596 21.1864 16.3871 21.5766C17.1145 21.9668 17.9548 22.0925 18.7645 21.9321C19.5743 21.7717 20.3032 21.3352 20.827 20.6972C21.3507 20.0591 21.6367 19.2591 21.6362 18.4336V0.515624C21.6362 0.437429 21.6184 0.360264 21.5842 0.289953C21.55 0.219642 21.5002 0.158021 21.4387 0.109741Z" fill="white"/>
</svg>
