<svg width="21" height="21" viewBox="0 0 21 21" fill="none" xmlns="http://www.w3.org/2000/svg">
<path d="M20.3438 5.25H0.65625C0.294 5.25 0 5.544 0 5.90625V20.3438C0 20.706 0.294 21 0.65625 21H20.3438C20.706 21 21 20.706 21 20.3438V5.90625C21 5.544 20.706 5.25 20.3438 5.25ZM13.7812 11.7311C13.419 11.7311 13.125 11.4371 13.125 11.0749C13.125 10.1981 12.4071 9.69675 11.8125 9.43294V16.4062C11.8125 17.5101 10.6601 18.375 9.1875 18.375C7.71488 18.375 6.5625 17.5101 6.5625 16.4062C6.5625 15.3024 7.71488 14.4375 9.1875 14.4375C9.67181 14.4375 10.1141 14.5386 10.5 14.7026V8.53125C10.5 8.33569 10.5866 8.15062 10.7376 8.02594C10.8885 7.90125 11.0867 7.85137 11.2783 7.88681C12.3716 8.09156 14.4375 9.02212 14.4375 11.0749C14.4375 11.4371 14.1435 11.7311 13.7812 11.7311Z" fill="white"/>
<path d="M18.375 3.28125C18.375 2.919 18.081 2.625 17.7188 2.625H3.28125C2.919 2.625 2.625 2.919 2.625 3.28125V3.9375H18.375V3.28125Z" fill="white"/>
<path d="M15.75 0.65625C15.75 0.294 15.456 0 15.0938 0H5.90625C5.544 0 5.25 0.294 5.25 0.65625V1.3125H15.75V0.65625Z" fill="white"/>
</svg>
