<svg width="26" height="27" viewBox="0 0 26 27" fill="none" xmlns="http://www.w3.org/2000/svg">
<path fill-rule="evenodd" clip-rule="evenodd" d="M24.2593 19.5943H10.8421C10.201 19.5932 9.5797 19.372 9.08209 18.9678C8.58449 18.5636 8.2407 18.0009 8.10821 17.3736L4.84254 1.86633H0.933051C0.685591 1.86633 0.448265 1.76803 0.273284 1.59305C0.0983033 1.41807 0 1.18074 0 0.933282C0 0.685822 0.0983033 0.448496 0.273284 0.273515C0.448265 0.0985343 0.685591 0.00023106 0.933051 0.00023106H5.59831C5.81528 -0.00459692 6.02716 0.0663653 6.19746 0.200903C6.36776 0.335441 6.48584 0.525138 6.53136 0.737342L9.94633 16.9911C9.99185 17.2033 10.1099 17.393 10.2802 17.5275C10.4505 17.6621 10.6624 17.733 10.8794 17.7282H24.2593C24.5068 17.7282 24.7441 17.8265 24.9191 18.0015C25.0941 18.1765 25.1924 18.4138 25.1924 18.6613C25.1924 18.9087 25.0941 19.146 24.9191 19.321C24.7441 19.496 24.5068 19.5943 24.2593 19.5943ZM21.4602 20.5274C20.9066 20.5274 20.3654 20.6915 19.9051 20.9991C19.4447 21.3067 19.086 21.7438 18.8741 22.2553C18.6622 22.7668 18.6068 23.3296 18.7148 23.8726C18.8228 24.4156 19.0894 24.9143 19.4809 25.3058C19.8723 25.6973 20.3711 25.9639 20.9141 26.0719C21.4571 26.1799 22.0199 26.1245 22.5314 25.9126C23.0428 25.7007 23.48 25.342 23.7876 24.8816C24.0952 24.4213 24.2593 23.8801 24.2593 23.3265C24.2593 22.5841 23.9644 21.8722 23.4395 21.3472C22.9145 20.8223 22.2026 20.5274 21.4602 20.5274ZM12.1297 20.5274C11.576 20.5274 11.0349 20.6915 10.5745 20.9991C10.1142 21.3067 9.75545 21.7438 9.54358 22.2553C9.33172 22.7668 9.27629 23.3296 9.3843 23.8726C9.4923 24.4156 9.7589 24.9143 10.1504 25.3058C10.5418 25.6973 11.0406 25.9639 11.5836 26.0719C12.1266 26.1799 12.6894 26.1245 13.2009 25.9126C13.7123 25.7007 14.1495 25.342 14.4571 24.8816C14.7647 24.4213 14.9288 23.8801 14.9288 23.3265C14.9288 22.5841 14.6339 21.8722 14.109 21.3472C13.584 20.8223 12.872 20.5274 12.1297 20.5274ZM25.7522 6.06506L24.5113 13.5295C24.4019 14.1901 24.0594 14.7897 23.5458 15.2194C23.0323 15.6491 22.3817 15.8804 21.7121 15.8714H10.6461L7.90294 2.79938H22.9904C23.3977 2.8003 23.8 2.89012 24.169 3.06255C24.538 3.23499 24.865 3.48589 25.1271 3.79775C25.3895 4.1077 25.5814 4.47104 25.6893 4.86256C25.7973 5.25409 25.8187 5.66441 25.7522 6.06506ZM20.2005 5.49496C20.2268 5.50058 20.2515 5.51212 20.2727 5.52871C20.2938 5.54528 20.3108 5.56643 20.3226 5.59056C20.3343 5.61469 20.3404 5.64117 20.3404 5.668V11.8173C20.3406 12.1006 20.2425 12.3752 20.0627 12.5941C19.883 12.8131 19.6328 12.9629 19.3549 13.018C19.077 13.073 18.7886 13.0299 18.539 12.896C18.2893 12.762 18.0939 12.5456 17.9861 12.2836C17.8782 12.0217 17.8647 11.7304 17.9477 11.4595C18.0307 11.1887 18.2052 10.955 18.4413 10.7985C18.6775 10.642 18.9606 10.5722 19.2424 10.6012C19.5242 10.6302 19.7872 10.7561 19.9865 10.9575V7.58689L15.4877 8.70378V11.8173C15.4878 12.1006 15.3896 12.3752 15.2098 12.5941C15.0301 12.8131 14.7799 12.9629 14.502 13.0179C14.224 13.0729 13.9357 13.0298 13.686 12.8958C13.4364 12.7619 13.241 12.5455 13.1331 12.2835C13.0253 12.0215 13.0118 11.7302 13.0948 11.4593C13.1779 11.1885 13.3524 10.9548 13.5885 10.7983C13.8246 10.6418 14.1078 10.5721 14.3896 10.6011C14.6714 10.6301 14.9344 10.756 15.1337 10.9573V6.87282C15.1337 6.83332 15.147 6.79495 15.1713 6.76384C15.1957 6.73274 15.2297 6.71068 15.2681 6.70119L20.1209 5.49627C20.147 5.48978 20.1742 5.48933 20.2005 5.49496Z" fill="white"/>
</svg>
