<svg width="23" height="23" viewBox="0 0 23 23" fill="none" xmlns="http://www.w3.org/2000/svg">
<path d="M13.8233 20.9489C13.6337 20.9962 13.4403 21.0381 13.2484 21.0735C12.7467 21.1668 12.415 21.6493 12.5078 22.1515C12.5536 22.3986 12.6939 22.6043 12.8844 22.7387C13.0807 22.8768 13.3306 22.9392 13.5852 22.8919C13.8138 22.8495 14.0441 22.7996 14.2702 22.7432C14.7656 22.6199 15.0675 22.1179 14.9439 21.6227C14.8206 21.1271 14.3191 20.8255 13.8233 20.9489Z" fill="white"/>
<path d="M20.6609 8.55563C20.7257 8.75083 20.8493 8.91018 21.0055 9.02028C21.2371 9.18339 21.5401 9.23827 21.8293 9.14265C22.3141 8.98167 22.5768 8.45888 22.4164 7.97431C22.3433 7.7534 22.2623 7.53181 22.1759 7.31605C21.9862 6.84191 21.4484 6.61107 20.974 6.80072C20.5001 6.99028 20.2692 7.52825 20.459 8.00254C20.5316 8.18389 20.5996 8.37003 20.6609 8.55563Z" fill="white"/>
<path d="M16.828 19.6288C16.6649 19.7364 16.4966 19.8407 16.327 19.9383C15.8846 20.1935 15.733 20.7591 15.9881 21.2013C16.0574 21.3216 16.1497 21.42 16.2559 21.4951C16.5411 21.6958 16.9285 21.7258 17.251 21.54C17.4526 21.4238 17.6531 21.3001 17.8474 21.1716C18.2732 20.8902 18.3905 20.3166 18.109 19.8905C17.8275 19.4643 17.2541 19.3472 16.828 19.6288Z" fill="white"/>
<path d="M22.9911 11.138C22.9709 10.6277 22.5411 10.2305 22.0306 10.2504C21.5208 10.2705 21.1233 10.7005 21.1433 11.2107C21.151 11.4057 21.1529 11.6037 21.1484 11.7985C21.1413 12.1185 21.2978 12.4038 21.5411 12.5753C21.686 12.6773 21.8618 12.7391 22.0525 12.7434C22.5629 12.7548 22.9858 12.35 22.9971 11.8394C23.0022 11.6066 23.0003 11.3707 22.9911 11.138Z" fill="white"/>
<path d="M20.5096 17.1964C20.1004 16.8894 19.5214 16.9727 19.215 17.3812C19.0976 17.5376 18.974 17.6921 18.8474 17.8409C18.5166 18.2295 18.5634 18.8132 18.952 19.1442C18.9741 19.163 18.9965 19.1803 19.0198 19.1965C19.4061 19.4689 19.943 19.4063 20.2554 19.0397C20.4065 18.8622 20.5539 18.6776 20.6941 18.4908C21.0007 18.0823 20.9177 17.503 20.5096 17.1964Z" fill="white"/>
<path d="M21.8688 13.8541C21.3815 13.7013 20.8626 13.9725 20.71 14.4598C20.6515 14.6459 20.5867 14.8329 20.5168 15.0161C20.3633 15.4194 20.5104 15.863 20.8476 16.1008C20.9094 16.1443 20.9776 16.1811 21.0516 16.2091C21.5286 16.3911 22.0629 16.1518 22.2447 15.6745C22.3277 15.4567 22.4047 15.2342 22.4744 15.0129C22.6269 14.5256 22.3559 14.0068 21.8688 13.8541Z" fill="white"/>
<path d="M9.78927 21.0818C8.96261 20.9334 8.16963 20.6806 7.41768 20.3281C7.40878 20.3235 7.40082 20.3182 7.39148 20.3139C7.21428 20.2305 7.03738 20.1412 6.86592 20.0478C6.86532 20.0471 6.86423 20.0467 6.8633 20.0463C6.5487 19.873 6.24167 19.6814 5.94339 19.4714C1.59396 16.4075 0.548184 10.3763 3.61225 6.02692C4.27851 5.0815 5.0848 4.29277 5.98369 3.66764C5.99476 3.65992 6.00584 3.65226 6.01681 3.6445C9.18436 1.46197 13.4854 1.31488 16.8488 3.55763L16.1264 4.60138C15.9256 4.8919 16.0492 5.1036 16.4007 5.07196L19.5386 4.79104C19.8906 4.75939 20.1012 4.45489 20.0065 4.11493L19.1638 1.07895C19.0695 0.738596 18.828 0.697856 18.627 0.988323L17.9029 2.03455C15.4346 0.377626 12.4741 -0.254181 9.53569 0.255359C9.23973 0.30658 8.94793 0.369271 8.66013 0.442246C8.65791 0.442641 8.65613 0.442889 8.65435 0.443284C8.64322 0.446003 8.63195 0.449613 8.62112 0.452629C6.08727 1.10332 3.87651 2.58117 2.29899 4.68973C2.28569 4.7055 2.272 4.72093 2.25944 4.73808C2.20698 4.80874 2.15492 4.88102 2.10395 4.9533C2.02059 5.07176 1.93842 5.19319 1.85981 5.31462C1.84997 5.32925 1.84245 5.34413 1.83385 5.35892C0.532066 7.37616 -0.0958356 9.7083 0.0118471 12.0826C0.0120943 12.0904 0.0116494 12.0982 0.0118471 12.1062C0.0222792 12.3382 0.0406713 12.5733 0.065639 12.8048C0.0669739 12.8197 0.0702865 12.8339 0.072808 12.8488C0.0986162 13.0816 0.131 13.3149 0.171591 13.5481C0.584128 15.9281 1.70684 18.0698 3.38917 19.7362C3.39307 19.7401 3.39713 19.7444 3.40108 19.7484C3.40247 19.7499 3.404 19.7507 3.40534 19.7522C3.85733 20.198 4.34897 20.6103 4.87833 20.9831C6.26367 21.9593 7.80629 22.6046 9.46296 22.9019C9.96563 22.9922 10.4458 22.6576 10.536 22.1551C10.6261 21.6524 10.2918 21.1718 9.78927 21.0818Z" fill="white"/>
<path d="M10.933 4.1134C10.5195 4.1134 10.1846 4.44861 10.1846 4.8615V12.3146L17.001 15.8383C17.1107 15.8951 17.2282 15.9219 17.3438 15.9219C17.6145 15.9219 17.876 15.7744 18.009 15.5172C18.1986 15.15 18.0551 14.699 17.688 14.5094L11.6805 11.4036V4.8615C11.6805 4.44861 11.3459 4.1134 10.933 4.1134Z" fill="white"/>
</svg>
