<svg width="31" height="31" viewBox="0 0 31 31" fill="none" xmlns="http://www.w3.org/2000/svg">
<g clip-path="url(#clip0_285_20288)">
<path d="M25.0694 9.0621L19.9514 8.3184L17.6626 3.68076C16.7785 1.88936 14.2222 1.8899 13.3384 3.6807L11.0496 8.31834L5.93162 9.0621C3.95458 9.34934 3.16541 11.7806 4.59541 13.1746L8.29882 16.7846L7.42458 21.8817C7.08691 23.8507 9.15513 25.3525 10.9229 24.4234L15.5006 22.0167L20.0783 24.4234C21.8436 25.3514 23.9142 23.8504 23.5766 21.8817L22.7024 16.7845L26.4058 13.1746C27.8361 11.78 27.0456 9.34927 25.0694 9.0621ZM24.9631 11.6947L20.8707 15.6838C20.6271 15.9212 20.516 16.2632 20.5735 16.5984L21.5396 22.2312C21.5881 22.514 21.2938 22.7277 21.0398 22.5943L15.9813 19.9349C15.6803 19.7767 15.3206 19.7767 15.0196 19.9349L9.96113 22.5943C9.70708 22.7278 9.41288 22.514 9.46138 22.2312L10.4275 16.5984C10.4849 16.2632 10.3738 15.9212 10.1303 15.6838L6.03788 11.6947C5.83232 11.4944 5.94476 11.1485 6.22878 11.1072L11.8843 10.2854C12.2209 10.2365 12.5119 10.0252 12.6624 9.72018L15.1917 4.59532C15.3186 4.33811 15.6823 4.33793 15.8094 4.59538L18.3386 9.72018C18.4892 10.0252 18.7801 10.2365 19.1167 10.2854L24.7722 11.1072C25.0562 11.1485 25.1686 11.4945 24.9631 11.6947Z" fill="white"/>
<path d="M8.15788 2.85495L6.92206 1.15401C6.58651 0.692399 5.94036 0.589954 5.47875 0.925505C5.01708 1.26093 4.91469 1.90715 5.25018 2.36882L6.486 4.0697C6.82168 4.53156 7.46783 4.63358 7.92932 4.29821C8.39099 3.96284 8.49338 3.31662 8.15788 2.85495Z" fill="white"/>
<path d="M4.0565 18.0979C3.88025 17.5552 3.2973 17.2579 2.75444 17.4345L0.714251 18.0974C0.171509 18.2738 -0.125473 18.8567 0.0508391 19.3995C0.227454 19.9431 0.811368 20.2391 1.3529 20.0629L3.39309 19.3999C3.93589 19.2236 4.23287 18.6406 4.0565 18.0979Z" fill="white"/>
<path d="M25.5221 0.925469C25.0605 0.59004 24.4143 0.692303 24.0788 1.15397L22.843 2.85486C22.5075 3.31653 22.6099 3.9628 23.0715 4.29817C23.5334 4.63372 24.1795 4.53116 24.5148 4.06967L25.7507 2.36879C26.0861 1.90712 25.9838 1.26084 25.5221 0.925469Z" fill="white"/>
<path d="M30.2857 18.0974L28.2455 17.4345C27.7028 17.2578 27.1198 17.5552 26.9434 18.0979C26.7671 18.6407 27.0641 19.2237 27.6069 19.4L29.647 20.0629C30.1886 20.2391 30.7725 19.9431 30.9491 19.3995C31.1255 18.8568 30.8284 18.2738 30.2857 18.0974Z" fill="white"/>
<path d="M15.5001 26.1082C14.9294 26.1082 14.4668 26.5708 14.4668 27.1414V29.2387C14.4668 29.8093 14.9294 30.272 15.5001 30.272C16.0707 30.272 16.5334 29.8093 16.5334 29.2387V27.1414C16.5334 26.5707 16.0708 26.1082 15.5001 26.1082Z" fill="white"/>
</g>
<defs>
<clipPath id="clip0_285_20288">
<rect width="31" height="31" fill="white"/>
</clipPath>
</defs>
</svg>
