<svg width="28" height="28" viewBox="0 0 28 28" fill="none" xmlns="http://www.w3.org/2000/svg">
<path d="M16.625 14C16.625 13.4809 16.4711 12.9734 16.1827 12.5417C15.8942 12.11 15.4842 11.7735 15.0046 11.5749C14.5249 11.3762 13.9971 11.3242 13.4879 11.4255C12.9787 11.5268 12.511 11.7768 12.1439 12.1439C11.7768 12.511 11.5268 12.9787 11.4255 13.4879C11.3242 13.9971 11.3762 14.5249 11.5749 15.0046C11.7735 15.4842 12.11 15.8942 12.5417 16.1827C12.9734 16.4711 13.4809 16.625 14 16.625C14.6962 16.625 15.3639 16.3485 15.8562 15.8562C16.3485 15.3639 16.625 14.6962 16.625 14ZM14 14.875C13.827 14.875 13.6578 14.8237 13.5139 14.7276C13.37 14.6314 13.2579 14.4948 13.1916 14.3349C13.1254 14.175 13.1081 13.9991 13.1419 13.8293C13.1756 13.6596 13.259 13.5037 13.3813 13.3813C13.5037 13.259 13.6596 13.1756 13.8293 13.1419C13.9991 13.1081 14.175 13.1254 14.3349 13.1916C14.4948 13.2579 14.6314 13.37 14.7276 13.5139C14.8237 13.6578 14.875 13.827 14.875 14C14.875 14.2321 14.7829 14.4547 14.6188 14.6188C14.4547 14.7829 14.2321 14.875 14 14.875ZM26.25 14C26.25 16.5895 25.4294 19.1124 23.9061 21.2064C22.3827 23.3004 20.235 24.8579 17.7713 25.655C17.6844 25.6865 17.5924 25.7014 17.5 25.6988C17.2921 25.6983 17.0912 25.6238 16.9332 25.4887C16.7752 25.3535 16.6705 25.1665 16.6379 24.9612C16.6052 24.7558 16.6468 24.5456 16.755 24.3681C16.8633 24.1906 17.0313 24.0575 17.2288 23.9925C19.3424 23.3104 21.1852 21.9757 22.4925 20.1802C23.7997 18.3847 24.5039 16.221 24.5039 14C24.5039 11.7791 23.7997 9.61537 22.4925 7.81989C21.1852 6.02441 19.3424 4.68967 17.2288 4.00754C17.1156 3.97525 17.0102 3.92048 16.9187 3.84649C16.8272 3.7725 16.7516 3.68081 16.6963 3.57692C16.6411 3.47303 16.6074 3.35907 16.5972 3.24185C16.587 3.12463 16.6006 3.00656 16.6371 2.8947C16.6736 2.78284 16.7323 2.67949 16.8096 2.59084C16.887 2.50218 16.9814 2.43004 17.0873 2.37873C17.1932 2.32742 17.3084 2.29798 17.4259 2.2922C17.5434 2.28641 17.6609 2.30438 17.7713 2.34504C20.235 3.14224 22.3827 4.69965 23.9061 6.79366C25.4294 8.88767 26.25 11.4106 26.25 14ZM16.9575 21.3063C16.8514 21.3469 16.7387 21.3677 16.625 21.3675C16.4204 21.3701 16.2214 21.3009 16.0625 21.172C15.9036 21.043 15.795 20.8624 15.7555 20.6616C15.7159 20.4609 15.748 20.2526 15.8461 20.073C15.9443 19.8935 16.1022 19.754 16.2925 19.6788C17.4295 19.2244 18.4041 18.4396 19.0907 17.4258C19.7773 16.412 20.1442 15.2157 20.1442 13.9913C20.1442 12.7669 19.7773 11.5706 19.0907 10.5568C18.4041 9.543 17.4295 8.75823 16.2925 8.30379C16.0767 8.21561 15.9048 8.0453 15.8145 7.83034C15.7243 7.61538 15.7231 7.37336 15.8113 7.15754C15.8995 6.94172 16.0698 6.76977 16.2847 6.67952C16.4997 6.58927 16.7417 6.58811 16.9575 6.67629C18.4154 7.26262 19.6646 8.27169 20.5443 9.57372C21.424 10.8757 21.8941 12.4112 21.8941 13.9825C21.8941 15.5539 21.424 17.0893 20.5443 18.3914C19.6646 19.6934 18.4154 20.7025 16.9575 21.2888V21.3063ZM11.375 25.095C11.3178 25.2705 11.2066 25.4233 11.0574 25.5318C10.9081 25.6402 10.7283 25.6987 10.5438 25.6988C10.4514 25.7014 10.3594 25.6865 10.2725 25.655C7.80885 24.8578 5.66115 23.3004 4.13783 21.2064C2.61452 19.1124 1.79395 16.5895 1.79395 14C1.79395 11.4106 2.61452 8.88771 4.13783 6.7937C5.66115 4.69969 7.80885 3.14226 10.2725 2.34504C10.383 2.30438 10.5004 2.28641 10.618 2.2922C10.7355 2.29798 10.8506 2.32742 10.9565 2.37873C11.0624 2.43004 11.1568 2.50218 11.2342 2.59084C11.3116 2.67949 11.3702 2.78284 11.4068 2.8947C11.4433 3.00656 11.4568 3.12463 11.4466 3.24185C11.4365 3.35907 11.4027 3.47303 11.3475 3.57692C11.2923 3.68081 11.2166 3.7725 11.1251 3.84649C11.0337 3.92048 10.9282 3.97525 10.815 4.00754C8.70145 4.68967 6.85859 6.02441 5.55137 7.81989C4.24416 9.61537 3.53994 11.7791 3.53994 14C3.53994 16.221 4.24416 18.3847 5.55137 20.1802C6.85859 21.9757 8.70145 23.3104 10.815 23.9925C11.0354 24.0646 11.2182 24.2212 11.3232 24.4279C11.4282 24.6346 11.4468 24.8746 11.375 25.095ZM12.25 20.8163C12.1852 20.9791 12.073 21.1187 11.9279 21.217C11.7828 21.3153 11.6115 21.3677 11.4363 21.3675C11.3225 21.3689 11.2096 21.3481 11.1038 21.3063C9.64591 20.72 8.39678 19.7109 7.51705 18.4089C6.63731 17.1068 6.16722 15.5714 6.16722 14C6.16722 12.4287 6.63731 10.8932 7.51705 9.59122C8.39678 8.28919 9.64591 7.28012 11.1038 6.69379C11.3196 6.60561 11.5616 6.60677 11.7766 6.69702C11.9916 6.78728 12.1619 6.95922 12.25 7.17504C12.3382 7.39086 12.3371 7.63288 12.2468 7.84784C12.1566 8.0628 11.9846 8.23311 11.7688 8.32129C10.6319 8.77574 9.6572 9.5605 8.97064 10.5743C8.28407 11.5881 7.91711 12.7844 7.91711 14.0088C7.91711 15.2332 8.28407 16.4295 8.97064 17.4433C9.6572 18.4571 10.6319 19.2419 11.7688 19.6963C11.9679 19.7948 12.1221 19.9653 12.2001 20.1733C12.2781 20.3813 12.274 20.6112 12.1888 20.8163H12.25Z" fill="white"/>
</svg>
