<svg width="113" height="113" viewBox="0 0 113 113" fill="none" xmlns="http://www.w3.org/2000/svg">
<path d="M56.5 113C87.7041 113 113 87.7041 113 56.5C113 25.2959 87.7041 0 56.5 0C25.2959 0 0 25.2959 0 56.5C0 87.7041 25.2959 113 56.5 113Z" fill="#3CB54A"/>
<path d="M104.295 47.7114C101.986 47.7114 99.7717 48.6286 98.1391 50.2611C96.5066 51.8936 95.5895 54.1079 95.5895 56.4166C95.5895 66.806 91.4623 76.7699 84.1159 84.1163C76.7694 91.4628 66.8055 95.5899 56.4161 95.5899C54.1074 95.5899 51.8932 96.5071 50.2606 98.1396C48.6281 99.7722 47.7109 101.986 47.7109 104.295C47.7109 106.604 48.6281 108.818 50.2606 110.451C51.8932 112.083 54.1074 113 56.4161 113C71.4231 113 85.8153 107.039 96.4268 96.4273C107.038 85.8158 113 71.4235 113 56.4166C113 54.1079 112.083 51.8936 110.45 50.2611C108.818 48.6286 106.603 47.7114 104.295 47.7114Z" fill="#0E9347"/>
<path d="M8.70519 65.2889C11.0139 65.2889 13.2281 64.3717 14.8607 62.7392C16.4932 61.1067 17.4104 58.8925 17.4104 56.5837C17.4104 46.1943 21.5376 36.2304 28.884 28.884C36.2304 21.5376 46.1943 17.4104 56.5837 17.4104C58.8925 17.4104 61.1067 16.4932 62.7392 14.8607C64.3717 13.2281 65.2889 11.0139 65.2889 8.70519C65.2889 6.39643 64.3717 4.18223 62.7392 2.54969C61.1067 0.917153 58.8925 0 56.5837 0C41.5768 0 27.1845 5.96149 16.573 16.573C5.96149 27.1845 0 41.5768 0 56.5837C0 58.8925 0.917144 61.1067 2.54968 62.7392C4.18222 64.3717 6.39643 65.2889 8.70519 65.2889Z" fill="#89C763"/>
<path d="M88.645 32.7103C87.8381 31.8933 86.8799 31.2453 85.8252 30.8031C84.7705 30.3609 83.64 30.1333 82.4982 30.1333C81.3565 30.1333 80.226 30.3609 79.1713 30.8031C78.1166 31.2453 77.1584 31.8933 76.3515 32.7103L47.7682 61.6621L37.4295 51.2939C37.1821 50.9349 36.906 50.597 36.6042 50.2835C35.7973 49.4665 34.8391 48.8184 33.7844 48.3762C32.7297 47.9341 31.5992 47.7065 30.4575 47.7065C29.3157 47.7065 28.1852 47.9341 27.1305 48.3762C26.0758 48.8184 25.1176 49.4665 24.3107 50.2835C23.503 51.0995 22.8622 52.0686 22.425 53.1352C21.9877 54.2019 21.7627 55.3453 21.7627 56.5C21.7627 57.6547 21.9877 58.798 22.425 59.8647C22.8622 60.9314 23.503 61.9004 24.3107 62.7165L41.6866 80.2896C42.4935 81.1066 43.4517 81.7547 44.5064 82.1969C45.5611 82.639 46.6916 82.8666 47.8333 82.8666C48.9751 82.8666 50.1056 82.639 51.1603 82.1969C52.215 81.7547 53.1732 81.1066 53.9801 80.2896L88.7318 45.1433C89.5339 44.3215 90.168 43.3479 90.5978 42.2781C91.0276 41.2083 91.2446 40.0633 91.2366 38.9086C91.2285 37.7539 90.9954 36.6121 90.5508 35.5486C90.1061 34.485 89.4585 33.5205 88.645 32.7103Z" fill="white"/>
<path d="M88.6672 32.7274C87.9174 31.9914 87.0417 31.3964 86.0819 30.9707C86.8067 32.5936 87.0229 34.3987 86.7021 36.1474C86.3814 37.8961 85.5386 39.5061 84.2854 40.7645L49.2307 75.899C48.4168 76.7157 47.4502 77.3636 46.3863 77.8056C45.3224 78.2477 44.182 78.4752 43.0304 78.4752C41.8787 78.4752 40.7383 78.2477 39.6744 77.8056C38.6105 77.3636 37.644 76.7157 36.8301 75.899L41.2119 80.2909C42.0258 81.1075 42.9923 81.7554 44.0562 82.1974C45.1201 82.6395 46.2605 82.867 47.4122 82.867C48.5639 82.867 49.7043 82.6395 50.7682 82.1974C51.8321 81.7554 52.7986 81.1075 53.6125 80.2909L88.6672 45.1563C89.482 44.3405 90.1284 43.3718 90.5695 42.3055C91.0105 41.2392 91.2375 40.0962 91.2375 38.9419C91.2375 37.7876 91.0105 36.6446 90.5695 35.5783C90.1284 34.5119 89.482 33.5432 88.6672 32.7274Z" fill="#DDDFE1"/>
<path d="M92.8912 36.9125C92.1529 36.1765 91.2907 35.5815 90.3457 35.1558C91.0593 36.7786 91.2722 38.5838 90.9564 40.3325C90.6405 42.0812 89.8108 43.6911 88.5768 44.9495L54.0614 80.0841C53.26 80.9008 52.3083 81.5487 51.2608 81.9907C50.2133 82.4327 49.0904 82.6602 47.9565 82.6602C46.8225 82.6602 45.6997 82.4327 44.6521 81.9907C43.6046 81.5487 42.653 80.9008 41.8516 80.0841L46.166 84.4759C46.9674 85.2926 47.919 85.9405 48.9666 86.3825C50.0141 86.8245 51.1369 87.0521 52.2709 87.0521C53.4049 87.0521 54.5277 86.8245 55.5752 86.3825C56.6227 85.9405 57.5744 85.2926 58.3758 84.4759L92.8912 49.3413C93.6935 48.5256 94.3299 47.5569 94.7642 46.4905C95.1984 45.4242 95.4219 44.2812 95.4219 43.1269C95.4219 41.9726 95.1984 40.8296 94.7642 39.7633C94.3299 38.697 93.6935 37.7283 92.8912 36.9125Z" fill="#0E9347"/>
</svg>
