<svg width="22" height="22" viewBox="0 0 22 22" fill="none" xmlns="http://www.w3.org/2000/svg">
<path d="M21.7569 3.46758C21.4316 3.14149 20.9047 3.14063 20.5783 3.46535L14.2508 9.76726L12.4222 7.93864C12.0966 7.61337 11.5694 7.61307 11.2438 7.93864L3.82719 15.3553C3.50161 15.6806 3.50161 16.2084 3.82719 16.5337C3.9897 16.6964 4.20304 16.7778 4.41637 16.7778C4.62941 16.7778 4.84305 16.6964 5.00552 16.5337L11.833 9.70646L13.6605 11.5337C13.9858 11.8589 14.5116 11.8592 14.8377 11.535L21.7544 4.64617C22.0805 4.32146 22.0816 3.79367 21.7569 3.46758Z" fill="white"/>
<path d="M21.1389 19.3333H1.66667V1.83333C1.66667 1.37305 1.29361 1 0.833334 1C0.373054 1 0 1.37305 0 1.83333V20.1666C0 20.6269 0.373054 21 0.833334 21H21.1389C21.5991 21 21.9722 20.6269 21.9722 20.1666C21.9722 19.7064 21.5991 19.3333 21.1389 19.3333Z" fill="white"/>
<path d="M21.1663 3.19446H14.9163C14.4561 3.19446 14.083 3.56751 14.083 4.02779C14.083 4.48807 14.4561 4.86113 14.9163 4.86113H20.333V10.2781C20.333 10.738 20.7061 11.1114 21.1663 11.1114C21.6266 11.1114 21.9996 10.738 21.9996 10.2778V4.02779C21.9996 3.56751 21.6266 3.19446 21.1663 3.19446Z" fill="white"/>
</svg>
